<svg width="65" height="64" viewBox="0 0 65 64" fill="none" xmlns="http://www.w3.org/2000/svg">
<path d="M53.3333 53.3334V53.8334H53.8333H56.4999C57.0746 53.8334 57.6257 54.0616 58.032 54.468C58.4383 54.8743 58.6666 55.4254 58.6666 56C58.6666 56.5747 58.4383 57.1258 58.032 57.5321C57.6257 57.9384 57.0746 58.1667 56.4999 58.1667H8.49992C7.92528 58.1667 7.37418 57.9384 6.96785 57.5321C6.56153 57.1258 6.33325 56.5747 6.33325 56C6.33325 55.4254 6.56153 54.8743 6.96785 54.468C7.37418 54.0616 7.92528 53.8334 8.49992 53.8334H11.1666H11.6666V53.3334V8.00004C11.6666 7.42541 11.8949 6.8743 12.3012 6.46798C12.7075 6.06165 13.2586 5.83337 13.8333 5.83337H51.1666C51.7412 5.83337 52.2923 6.06165 52.6987 6.46798C53.105 6.8743 53.3333 7.4254 53.3333 8.00004V53.3334ZM35.1666 53.8334H35.6666V53.3334V42.6667V42.1667H35.1666H29.8333H29.3333V42.6667V53.3334V53.8334H29.8333H35.1666ZM48.4999 53.8334H48.9999V53.3334V10.6667V10.1667H48.4999H16.4999H15.9999V10.6667V53.3334V53.8334H16.4999H24.4999H24.9999V53.3334V40C24.9999 39.4254 25.2282 38.8743 25.6345 38.468C26.0409 38.0616 26.5919 37.8334 27.1666 37.8334H37.8333C38.4079 37.8334 38.959 38.0616 39.3653 38.468C39.7716 38.8743 39.9999 39.4254 39.9999 40V53.3334V53.8334H40.4999H48.4999ZM40.4999 20.8334H37.8333C37.2586 20.8334 36.7075 20.6051 36.3012 20.1988C35.8949 19.7924 35.6666 19.2413 35.6666 18.6667C35.6666 18.0921 35.8949 17.541 36.3012 17.1346C36.7075 16.7283 37.2586 16.5 37.8333 16.5H40.4999C41.0746 16.5 41.6257 16.7283 42.032 17.1346C42.4383 17.541 42.6666 18.0921 42.6666 18.6667C42.6666 19.2413 42.4383 19.7924 42.032 20.1988C41.6257 20.6051 41.0746 20.8334 40.4999 20.8334ZM40.4999 31.5H37.8333C37.2586 31.5 36.7075 31.2718 36.3012 30.8654C35.8949 30.4591 35.6666 29.908 35.6666 29.3334C35.6666 28.7587 35.8949 28.2076 36.3012 27.8013C36.7075 27.395 37.2586 27.1667 37.8333 27.1667H40.4999C41.0746 27.1667 41.6257 27.395 42.032 27.8013C42.4383 28.2076 42.6666 28.7587 42.6666 29.3334C42.6666 29.908 42.4383 30.4591 42.032 30.8654C41.6257 31.2718 41.0746 31.5 40.4999 31.5ZM27.1666 20.8334H24.4999C23.9253 20.8334 23.3742 20.6051 22.9679 20.1988C22.5615 19.7924 22.3333 19.2413 22.3333 18.6667C22.3333 18.0921 22.5615 17.541 22.9679 17.1346C23.3742 16.7283 23.9253 16.5 24.4999 16.5H27.1666C27.7412 16.5 28.2923 16.7283 28.6987 17.1346C29.105 17.541 29.3333 18.0921 29.3333 18.6667C29.3333 19.2413 29.105 19.7924 28.6987 20.1988C28.2923 20.6051 27.7412 20.8334 27.1666 20.8334ZM27.1666 31.5H24.4999C23.9253 31.5 23.3742 31.2718 22.9679 30.8654C22.5615 30.4591 22.3333 29.908 22.3333 29.3334C22.3333 28.7587 22.5615 28.2076 22.9679 27.8013C23.3742 27.395 23.9253 27.1667 24.4999 27.1667H27.1666C27.7412 27.1667 28.2923 27.395 28.6987 27.8013C29.105 28.2076 29.3333 28.7587 29.3333 29.3334C29.3333 29.908 29.105 30.4591 28.6987 30.8654C28.2923 31.2718 27.7412 31.5 27.1666 31.5Z" fill="#D84E00" stroke="white"/>
</svg>
