<svg width="64" height="64" viewBox="0 0 64 64" fill="none" xmlns="http://www.w3.org/2000/svg">
<path d="M44.8333 10.6667V11.1667H45.3333H50.6666C52.6557 11.1667 54.5634 11.9569 55.9699 13.3634C57.3764 14.7699 58.1666 16.6776 58.1666 18.6667V50.6667C58.1666 52.6558 57.3764 54.5635 55.9699 55.97C54.5634 57.3765 52.6557 58.1667 50.6666 58.1667H13.3333C11.3441 58.1667 9.43647 57.3765 8.02995 55.97C6.62343 54.5635 5.83325 52.6558 5.83325 50.6667V18.6667C5.83325 16.6776 6.62343 14.7699 8.02995 13.3634C9.43647 11.9569 11.3441 11.1667 13.3333 11.1667H18.6666H19.1666V10.6667V8.00004C19.1666 7.42541 19.3949 6.8743 19.8012 6.46798C20.2075 6.06165 20.7586 5.83337 21.3333 5.83337C21.9079 5.83337 22.459 6.06165 22.8653 6.46798C23.2716 6.87431 23.4999 7.42541 23.4999 8.00004V10.6667V11.1667H23.9999H39.9999H40.4999V10.6667V8.00004C40.4999 7.42541 40.7282 6.8743 41.1345 6.46798C41.5409 6.06165 42.092 5.83337 42.6666 5.83337C43.2412 5.83337 43.7923 6.06165 44.1987 6.46798C44.605 6.8743 44.8333 7.4254 44.8333 8.00004V10.6667ZM10.6666 31.5H10.1666V32V50.6667C10.1666 51.5066 10.5002 52.312 11.0941 52.9059C11.6879 53.4997 12.4934 53.8334 13.3333 53.8334H50.6666C51.5064 53.8334 52.3119 53.4997 52.9058 52.9059C53.4996 52.312 53.8333 51.5066 53.8333 50.6667V32V31.5H53.3333H10.6666ZM53.3333 27.1667H53.8333V26.6667V18.6667C53.8333 17.8269 53.4996 17.0214 52.9058 16.4275C52.3119 15.8337 51.5064 15.5 50.6666 15.5H45.3333H44.8333V16V18.6667C44.8333 19.2413 44.605 19.7924 44.1987 20.1988C43.7923 20.6051 43.2412 20.8334 42.6666 20.8334C42.092 20.8334 41.5409 20.6051 41.1345 20.1988C40.7282 19.7924 40.4999 19.2413 40.4999 18.6667V16V15.5H39.9999H23.9999H23.4999V16V18.6667C23.4999 19.2413 23.2716 19.7924 22.8653 20.1988C22.459 20.6051 21.9079 20.8334 21.3333 20.8334C20.7586 20.8334 20.2075 20.6051 19.8012 20.1988C19.3949 19.7924 19.1666 19.2413 19.1666 18.6667V16V15.5H18.6666H13.3333C12.4934 15.5 11.6879 15.8337 11.0941 16.4275C10.5002 17.0214 10.1666 17.8269 10.1666 18.6667V26.6667V27.1667H10.6666H53.3333Z" fill="#D84E00" stroke="white"/>
</svg>
