<svg width="64" height="64" viewBox="0 0 64 64" fill="none" xmlns="http://www.w3.org/2000/svg">
<path d="M60.2064 57.1269L60.2079 57.1283C60.411 57.3298 60.5722 57.5694 60.6822 57.8334C60.7922 58.0975 60.8488 58.3806 60.8488 58.6667C60.8488 58.9527 60.7922 59.2359 60.6822 59.4999C60.5722 59.764 60.411 60.0036 60.2079 60.205L60.205 60.2079C60.0036 60.411 59.764 60.5722 59.4999 60.6822C59.2359 60.7922 58.9527 60.8488 58.6667 60.8488C58.3806 60.8488 58.0975 60.7922 57.8334 60.6822C57.5696 60.5723 57.3302 60.4113 57.1289 60.2085C57.1287 60.2083 57.1285 60.2081 57.1283 60.2079L55.2627 58.3156L55.1159 58.1667H54.9067H8.00001C7.42537 58.1667 6.87427 57.9384 6.46794 57.5321C6.06161 57.1257 5.83334 56.5746 5.83334 56V9.09334V8.88415L5.68438 8.73729L3.79237 6.87193C3.38474 6.46367 3.15576 5.91031 3.15576 5.33334C3.15576 4.75581 3.38518 4.20193 3.79356 3.79356C4.20193 3.38518 4.75581 3.15576 5.33334 3.15576C5.91087 3.15576 6.46474 3.38518 6.87312 3.79356L9.53979 6.46023L25.5398 22.4602L41.5398 38.4602L57.5398 54.4602L60.2064 57.1269ZM11.0202 14.0731L10.1667 13.2196V14.4267V21.3333V21.8333H10.6667H17.5733H18.7804L17.9269 20.9798L11.0202 14.0731ZM21.3333 53.8333H21.8333V53.3333V42.6667V42.1667H21.3333H10.6667H10.1667V42.6667V53.3333V53.8333H10.6667H21.3333ZM21.3333 37.8333H21.8333V37.3333V26.6667V26.1667H21.3333H10.6667H10.1667V26.6667V37.3333V37.8333H10.6667H21.3333ZM27.0202 30.0731L26.1667 29.2196V30.4267V37.3333V37.8333H26.6667H33.5733H34.7804L33.9269 36.9798L27.0202 30.0731ZM37.3333 53.8333H37.8333V53.3333V42.6667V42.1667H37.3333H26.6667H26.1667V42.6667V53.3333V53.8333H26.6667H37.3333ZM42.1667 53.3333V53.8333H42.6667H49.5733H50.7804L49.9269 52.9798L43.0202 46.0731L42.1667 45.2196V46.4267V53.3333ZM37.8333 10.6667V10.1667H37.3333H23.12C22.5454 10.1667 21.9943 9.9384 21.5879 9.53207C21.1816 9.12574 20.9533 8.57464 20.9533 8.00001C20.9533 7.42537 21.1816 6.87427 21.5879 6.46794C21.9943 6.06161 22.5454 5.83334 23.12 5.83334H56C56.5746 5.83334 57.1257 6.06161 57.5321 6.46794C57.9384 6.87427 58.1667 7.42537 58.1667 8.00001V40.88C58.1667 41.4546 57.9384 42.0057 57.5321 42.4121C57.1257 42.8184 56.5746 43.0467 56 43.0467C55.4254 43.0467 54.8743 42.8184 54.4679 42.4121C54.0616 42.0057 53.8333 41.4546 53.8333 40.88V26.6667V26.1667H53.3333H40C39.4254 26.1667 38.8743 25.9384 38.4679 25.5321C38.0616 25.1257 37.8333 24.5746 37.8333 24V10.6667ZM42.6667 10.1667H42.1667V10.6667V21.3333V21.8333H42.6667H53.3333H53.8333V21.3333V10.6667V10.1667H53.3333H42.6667Z" fill="#D84E00" stroke="white"/>
</svg>
