<svg width="64" height="64" viewBox="0 0 64 64" fill="none" xmlns="http://www.w3.org/2000/svg">
<path d="M33.4352 57.6253L33.4215 57.6356L33.4084 57.6467C33.016 57.9824 32.5165 58.1669 32.0001 58.1669C31.4836 58.1669 30.9842 57.9824 30.5917 57.6467L30.5898 57.645C30.1668 57.2785 25.311 53.0704 20.556 47.1729C15.7636 41.229 11.1667 33.6808 11.1667 26.6667C11.1667 21.1414 13.3617 15.8423 17.2687 11.9353C21.1757 8.02831 26.4747 5.83337 32.0001 5.83337C37.5254 5.83337 42.8245 8.02831 46.7315 11.9353C50.6385 15.8423 52.8334 21.1414 52.8334 26.6667C52.8334 33.6819 48.2687 41.2306 43.4936 47.1735C38.7326 53.0991 33.8626 57.3079 33.4352 57.6253ZM31.6578 52.7645L31.9992 53.0851L32.3414 52.7654C35.1985 50.0961 39.2235 45.8639 42.5384 41.1719C45.8389 36.5004 48.5001 31.2844 48.5001 26.6667C48.5001 22.2906 46.7617 18.0938 43.6673 14.9994C40.573 11.9051 36.3762 10.1667 32.0001 10.1667C27.624 10.1667 23.4272 11.9051 20.3328 14.9994C17.2385 18.0938 15.5001 22.2906 15.5001 26.6667C15.5001 31.2845 18.1614 36.4939 21.4618 41.162C24.7768 45.8507 28.8015 50.0826 31.6578 52.7645ZM26.3518 18.2134C28.0237 17.0963 29.9893 16.5 32.0001 16.5C34.6964 16.5 37.2824 17.5712 39.189 19.4778C41.0956 21.3844 42.1667 23.9703 42.1667 26.6667C42.1667 28.6775 41.5705 30.6431 40.4534 32.315C39.3362 33.9869 37.7484 35.29 35.8907 36.0595C34.033 36.829 31.9888 37.0303 30.0167 36.638C28.0445 36.2457 26.233 35.2775 24.8112 33.8556C23.3893 32.4338 22.421 30.6223 22.0288 28.6501C21.6365 26.678 21.8378 24.6338 22.6073 22.7761C23.3768 20.9184 24.6799 19.3306 26.3518 18.2134ZM28.7593 31.5169C29.7185 32.1579 30.8464 32.5 32.0001 32.5C33.5472 32.5 35.0309 31.8855 36.1249 30.7915C37.2188 29.6975 37.8334 28.2138 37.8334 26.6667C37.8334 25.513 37.4913 24.3852 36.8503 23.4259C36.2093 22.4666 35.2983 21.7189 34.2324 21.2774C33.1665 20.8359 31.9936 20.7204 30.8621 20.9455C29.7305 21.1705 28.6911 21.7261 27.8753 22.5419C27.0595 23.3577 26.5039 24.3971 26.2788 25.5287C26.0538 26.6602 26.1693 27.8331 26.6108 28.899C27.0523 29.9649 27.8 30.876 28.7593 31.5169Z" fill="#D84E00" stroke="white"/>
</svg>
