<svg width="65" height="64" viewBox="0 0 65 64" fill="none" xmlns="http://www.w3.org/2000/svg">
<path d="M4.30135 46.4679C4.70768 46.0616 5.25878 45.8333 5.83341 45.8333H59.1667C59.7414 45.8333 60.2925 46.0616 60.6988 46.4679C61.1051 46.8742 61.3334 47.4253 61.3334 48C61.3334 48.5746 61.1051 49.1257 60.6988 49.532C60.2925 49.9384 59.7414 50.1666 59.1667 50.1666H5.83341C5.25878 50.1666 4.70768 49.9384 4.30135 49.532C3.89502 49.1257 3.66675 48.5746 3.66675 48C3.66675 47.4253 3.89502 46.8742 4.30135 46.4679ZM4.30135 57.1346C4.70768 56.7282 5.25878 56.5 5.83341 56.5H59.1667C59.7414 56.5 60.2925 56.7282 60.6988 57.1346C61.1051 57.5409 61.3334 58.092 61.3334 58.6666C61.3334 59.2413 61.1051 59.7924 60.6988 60.1987C60.2925 60.605 59.7414 60.8333 59.1667 60.8333H5.83341C5.25878 60.8333 4.70768 60.605 4.30135 60.1987C3.89502 59.7924 3.66675 59.2413 3.66675 58.6666C3.66675 58.092 3.89502 57.5409 4.30135 57.1346ZM15.2963 19.5318C15.6527 19.2937 16.0716 19.1666 16.5001 19.1666C17.0747 19.1666 17.6258 19.3949 18.0321 19.8012C18.4385 20.2076 18.6667 20.7587 18.6667 21.3333C18.6667 21.7618 18.5397 22.1807 18.3016 22.537C18.0635 22.8933 17.7251 23.171 17.3292 23.335C16.9333 23.499 16.4977 23.5419 16.0774 23.4583C15.6571 23.3747 15.271 23.1684 14.968 22.8654C14.665 22.5623 14.4586 22.1763 14.375 21.756C14.2914 21.3357 14.3344 20.9001 14.4983 20.5041C14.6623 20.1082 14.94 19.7698 15.2963 19.5318ZM11.1667 3.16663H53.8334C55.8225 3.16663 57.7302 3.9568 59.1367 5.36332C60.5432 6.76985 61.3334 8.6775 61.3334 10.6666V32C61.3334 33.9891 60.5432 35.8967 59.1367 37.3033C57.7302 38.7098 55.8225 39.5 53.8334 39.5H11.1667C9.17762 39.5 7.26997 38.7098 5.86345 37.3033C4.45692 35.8967 3.66675 33.9891 3.66675 32V10.6666C3.66675 8.6775 4.45692 6.76985 5.86345 5.36332C7.26997 3.9568 9.17762 3.16663 11.1667 3.16663ZM56.0726 34.2391C56.6665 33.6453 57.0001 32.8398 57.0001 32V10.6666C57.0001 9.82677 56.6665 9.02132 56.0726 8.42745C55.4787 7.83359 54.6733 7.49996 53.8334 7.49996H11.1667C10.3269 7.49996 9.52144 7.83359 8.92758 8.42745C8.33371 9.02132 8.00008 9.82677 8.00008 10.6666V32C8.00008 32.8398 8.33371 33.6453 8.92758 34.2391C9.52144 34.833 10.3269 35.1666 11.1667 35.1666H53.8334C54.6733 35.1666 55.4787 34.833 56.0726 34.2391ZM28.3333 15.0973C29.5667 14.2732 31.0167 13.8333 32.5001 13.8333C34.4892 13.8333 36.3969 14.6235 37.8034 16.03C39.2099 17.4365 40.0001 19.3442 40.0001 21.3333C40.0001 22.8167 39.5602 24.2667 38.7361 25.5001C37.912 26.7334 36.7407 27.6947 35.3702 28.2624C33.9998 28.83 32.4918 28.9786 31.0369 28.6892C29.582 28.3998 28.2457 27.6855 27.1968 26.6366C26.1479 25.5877 25.4336 24.2513 25.1442 22.7965C24.8548 21.3416 25.0033 19.8336 25.571 18.4632C26.1386 17.0927 27.0999 15.9214 28.3333 15.0973ZM30.7408 23.9663C31.2615 24.3142 31.8738 24.5 32.5001 24.5C33.3399 24.5 34.1454 24.1663 34.7392 23.5725C35.3331 22.9786 35.6667 22.1731 35.6667 21.3333C35.6667 20.707 35.481 20.0947 35.1331 19.574C34.7851 19.0532 34.2905 18.6474 33.7119 18.4077C33.1333 18.168 32.4966 18.1053 31.8823 18.2275C31.268 18.3497 30.7038 18.6513 30.2609 19.0941C29.818 19.537 29.5164 20.1012 29.3943 20.7155C29.2721 21.3298 29.3348 21.9665 29.5745 22.5451C29.8141 23.1238 30.22 23.6183 30.7408 23.9663ZM47.2963 19.5318C47.6526 19.2937 48.0716 19.1666 48.5001 19.1666C49.0747 19.1666 49.6258 19.3949 50.0321 19.8012C50.4385 20.2076 50.6667 20.7587 50.6667 21.3333C50.6667 21.7618 50.5397 22.1807 50.3016 22.537C50.0635 22.8933 49.7251 23.171 49.3292 23.335C48.9333 23.499 48.4977 23.5419 48.0774 23.4583C47.6571 23.3747 47.271 23.1684 46.968 22.8654C46.665 22.5623 46.4586 22.1763 46.375 21.756C46.2914 21.3357 46.3344 20.9001 46.4983 20.5041C46.6623 20.1082 46.94 19.7698 47.2963 19.5318Z" fill="#D84E00" stroke="white"/>
</svg>
