<svg width="64" height="64" viewBox="0 0 64 64" fill="none" xmlns="http://www.w3.org/2000/svg">
<path d="M32.4728 32.2087L31.8822 32.7199L32.5938 33.0422C36.2393 34.6929 39.3322 37.3587 41.5027 40.7207C43.6733 44.0827 44.8296 47.9987 44.8334 52.0005C44.8333 52.575 44.605 53.1259 44.1988 53.5321C43.7925 53.9384 43.2414 54.1667 42.6667 54.1667C42.0921 54.1667 41.541 53.9384 41.1347 53.5321C40.7284 53.1258 40.5001 52.5747 40.5001 52C40.5001 47.624 38.7617 43.4271 35.6673 40.3328C32.573 37.2384 28.3762 35.5 24.0001 35.5C19.624 35.5 15.4272 37.2384 12.3328 40.3328C9.23847 43.4271 7.50008 47.624 7.50008 52C7.50008 52.5747 7.27181 53.1258 6.86548 53.5321C6.45915 53.9384 5.90805 54.1667 5.33341 54.1667C4.75878 54.1667 4.20768 53.9384 3.80135 53.5321C3.39507 53.1258 3.16681 52.5748 3.16675 52.0003C3.17063 47.9986 4.32694 44.0826 6.49743 40.7207C8.66796 37.3587 11.7609 34.6929 15.4063 33.0422L16.118 32.7199L15.5273 32.2087C14.1587 31.024 13.0609 29.5587 12.3085 27.9123C11.5561 26.2659 11.1667 24.4769 11.1667 22.6667C11.1667 19.2631 12.5188 15.9989 14.9255 13.5922C17.3323 11.1855 20.5965 9.83337 24.0001 9.83337C27.4037 9.83337 30.6679 11.1855 33.0746 13.5922C35.4813 15.9989 36.8334 19.2631 36.8334 22.6667C36.8334 24.4769 36.444 26.2659 35.6917 27.9123C34.9393 29.5587 33.8415 31.024 32.4728 32.2087ZM49.5995 31.188L49.2067 31.6305L49.7084 31.944C53.1064 34.0677 55.9049 37.0249 57.838 40.5348C59.7712 44.0446 60.7748 47.9904 60.7534 51.9974V52C60.7534 52.5747 60.5251 53.1258 60.1188 53.5321C59.7125 53.9384 59.1614 54.1667 58.5867 54.1667C58.0121 54.1667 57.461 53.9384 57.0547 53.5321C56.6488 53.1262 56.4206 52.5759 56.4201 52.0019C56.4486 48.3499 55.433 44.7656 53.493 41.6713C51.5549 38.58 48.7747 36.1062 45.4793 34.5404L45.1645 34.371L44.1441 33.6907L44.1416 33.689C43.8342 33.4868 43.5834 33.2096 43.4129 32.8836C43.2424 32.5578 43.1577 32.194 43.1666 31.8265C43.1763 31.4558 43.281 31.0938 43.4707 30.7751C43.6604 30.4564 43.9287 30.1918 44.2499 30.0065L44.2501 30.0064C45.5389 29.2623 46.6098 28.1929 47.3556 26.9051C48.1014 25.6173 48.4961 24.1562 48.5001 22.6681V22.6667C48.5001 20.4124 47.6046 18.2504 46.0105 16.6563C44.4164 15.0622 42.2544 14.1667 40.0001 14.1667C39.4254 14.1667 38.8743 13.9384 38.468 13.5321C38.0617 13.1258 37.8334 12.5747 37.8334 12C37.8334 11.4254 38.0617 10.8743 38.468 10.468C38.8743 10.0616 39.4254 9.83337 40.0001 9.83337H40.0002C42.474 9.83271 44.8952 10.547 46.9725 11.8904C49.0498 13.2337 50.6945 15.1488 51.7087 17.405C52.723 19.6613 53.0635 22.1627 52.6893 24.608C52.3151 27.0533 51.2421 29.3383 49.5995 31.188ZM19.2777 29.7342C20.6756 30.6682 22.3189 31.1667 24.0001 31.1667C26.2544 31.1667 28.4164 30.2712 30.0105 28.6771C31.6045 27.0831 32.5001 24.921 32.5001 22.6667C32.5001 20.9856 32.0016 19.3422 31.0676 17.9444C30.1336 16.5465 28.8061 15.4571 27.2529 14.8137C25.6997 14.1704 23.9907 14.0021 22.3418 14.33C20.693 14.658 19.1784 15.4676 17.9897 16.6563C16.8009 17.845 15.9914 19.3596 15.6634 21.0084C15.3354 22.6573 15.5038 24.3663 16.1471 25.9195C16.7905 27.4727 17.8799 28.8002 19.2777 29.7342Z" fill="#D84E00" stroke="white"/>
</svg>
