<svg width="24" height="25" viewBox="0 0 24 25" fill="none" xmlns="http://www.w3.org/2000/svg">
<path d="M19.63 4.15C19.5138 4.05602 19.3781 3.98928 19.2327 3.95467C19.0873 3.92006 18.9361 3.91846 18.79 3.95C17.7214 4.17395 16.6183 4.1768 15.5486 3.95839C14.4789 3.73997 13.4653 3.30492 12.57 2.68C12.4026 2.56388 12.2037 2.50165 12 2.50165C11.7963 2.50165 11.5974 2.56388 11.43 2.68C10.5348 3.30492 9.52108 3.73997 8.45137 3.95839C7.38166 4.1768 6.27857 4.17395 5.21001 3.95C5.06394 3.91846 4.91267 3.92006 4.76731 3.95467C4.62194 3.98928 4.48618 4.05602 4.37001 4.15C4.25399 4.24412 4.16053 4.36304 4.0965 4.49802C4.03247 4.633 3.9995 4.78061 4.00001 4.93V12.38C3.99912 13.8138 4.34078 15.227 4.99654 16.502C5.6523 17.777 6.60319 18.8768 7.77001 19.71L11.42 22.31C11.5894 22.4306 11.7921 22.4954 12 22.4954C12.2079 22.4954 12.4106 22.4306 12.58 22.31L16.23 19.71C17.3968 18.8768 18.3477 17.777 19.0035 16.502C19.6592 15.227 20.0009 13.8138 20 12.38V4.93C20.0005 4.78061 19.9675 4.633 19.9035 4.49802C19.8395 4.36304 19.746 4.24412 19.63 4.15ZM18 12.38C18.0008 13.4948 17.7353 14.5936 17.2257 15.585C16.716 16.5765 15.977 17.4319 15.07 18.08L12 20.27L8.93001 18.08C8.02304 17.4319 7.28399 16.5765 6.77435 15.585C6.26472 14.5936 5.99924 13.4948 6.00001 12.38V6.08C8.09643 6.25944 10.196 5.77303 12 4.69C13.804 5.77303 15.9036 6.25944 18 6.08V12.38Z" fill="#D84E00"/>
</svg>
