<svg width="24" height="25" viewBox="0 0 24 25" fill="none" xmlns="http://www.w3.org/2000/svg">
<path d="M13.3 12.72C13.8336 12.2581 14.2616 11.6869 14.5549 11.045C14.8482 10.4032 15 9.70571 15 9C15 7.67392 14.4732 6.40215 13.5355 5.46447C12.5979 4.52678 11.3261 4 10 4C8.67392 4 7.40215 4.52678 6.46447 5.46447C5.52678 6.40215 5 7.67392 5 9C4.99999 9.70571 5.1518 10.4032 5.44513 11.045C5.73845 11.6869 6.16642 12.2581 6.7 12.72C5.30014 13.3539 4.11247 14.3775 3.27898 15.6685C2.4455 16.9596 2.00147 18.4633 2 20C2 20.2652 2.10536 20.5196 2.29289 20.7071C2.48043 20.8946 2.73478 21 3 21C3.26522 21 3.51957 20.8946 3.70711 20.7071C3.89464 20.5196 4 20.2652 4 20C4 18.4087 4.63214 16.8826 5.75736 15.7574C6.88258 14.6321 8.4087 14 10 14C11.5913 14 13.1174 14.6321 14.2426 15.7574C15.3679 16.8826 16 18.4087 16 20C16 20.2652 16.1054 20.5196 16.2929 20.7071C16.4804 20.8946 16.7348 21 17 21C17.2652 21 17.5196 20.8946 17.7071 20.7071C17.8946 20.5196 18 20.2652 18 20C17.9985 18.4633 17.5545 16.9596 16.721 15.6685C15.8875 14.3775 14.6999 13.3539 13.3 12.72ZM10 12C9.40666 12 8.82664 11.8241 8.33329 11.4944C7.83994 11.1648 7.45542 10.6962 7.22836 10.1481C7.0013 9.59987 6.94189 8.99667 7.05764 8.41473C7.1734 7.83279 7.45912 7.29824 7.87868 6.87868C8.29824 6.45912 8.83279 6.1734 9.41473 6.05764C9.99667 5.94189 10.5999 6.0013 11.1481 6.22836C11.6962 6.45542 12.1648 6.83994 12.4944 7.33329C12.8241 7.82664 13 8.40666 13 9C13 9.79565 12.6839 10.5587 12.1213 11.1213C11.5587 11.6839 10.7956 12 10 12ZM21.71 9.63C21.617 9.53627 21.5064 9.46188 21.3846 9.41111C21.2627 9.36034 21.132 9.3342 21 9.3342C20.868 9.3342 20.7373 9.36034 20.6154 9.41111C20.4936 9.46188 20.383 9.53627 20.29 9.63L18.29 11.63L17.67 11C17.577 10.9063 17.4664 10.8319 17.3446 10.7811C17.2227 10.7303 17.092 10.7042 16.96 10.7042C16.828 10.7042 16.6973 10.7303 16.5754 10.7811C16.4536 10.8319 16.343 10.9063 16.25 11C16.0637 11.1874 15.9592 11.4408 15.9592 11.705C15.9592 11.9692 16.0637 12.2226 16.25 12.41L17.59 13.75C17.7774 13.9363 18.0308 14.0408 18.295 14.0408C18.5592 14.0408 18.8126 13.9363 19 13.75L21.67 11.08C21.771 10.9893 21.8524 10.879 21.9094 10.7559C21.9664 10.6327 21.9977 10.4992 22.0014 10.3636C22.0052 10.2279 21.9813 10.0929 21.9312 9.96682C21.8811 9.84071 21.8058 9.72611 21.71 9.63Z" fill="#D84E00"/>
</svg>
