<svg width="24" height="25" viewBox="0 0 24 25" fill="none" xmlns="http://www.w3.org/2000/svg">
<path d="M22 8.32001C22.0048 8.25677 22.0048 8.19325 22 8.13001L20 3.13001C19.9219 2.93237 19.7828 2.76475 19.603 2.65147C19.4232 2.53819 19.212 2.48514 19 2.50001H5C4.79972 2.49982 4.604 2.55977 4.43818 2.67209C4.27237 2.78442 4.1441 2.94395 4.07 3.13001L2.07 8.13001C2.06518 8.19325 2.06518 8.25677 2.07 8.32001C2.03677 8.37568 2.01311 8.43652 2 8.50001C2.01113 9.19125 2.20123 9.86781 2.55174 10.4637C2.90226 11.0596 3.40124 11.5544 4 11.9V21.5C4 21.7652 4.10536 22.0196 4.29289 22.2071C4.48043 22.3947 4.73478 22.5 5 22.5H19C19.2652 22.5 19.5196 22.3947 19.7071 22.2071C19.8946 22.0196 20 21.7652 20 21.5V11.94C20.6046 11.591 21.1072 11.0898 21.4581 10.4864C21.809 9.88287 21.9958 9.19807 22 8.50001C22.0094 8.44038 22.0094 8.37965 22 8.32001ZM13 20.5H11V16.5H13V20.5ZM18 20.5H15V15.5C15 15.2348 14.8946 14.9804 14.7071 14.7929C14.5196 14.6054 14.2652 14.5 14 14.5H10C9.73478 14.5 9.48043 14.6054 9.29289 14.7929C9.10536 14.9804 9 15.2348 9 15.5V20.5H6V12.5C6.56947 12.4968 7.13169 12.372 7.64905 12.134C8.16642 11.8961 8.627 11.5503 9 11.12C9.37537 11.5456 9.83701 11.8865 10.3542 12.12C10.8715 12.3535 11.4325 12.4743 12 12.4743C12.5675 12.4743 13.1285 12.3535 13.6458 12.12C14.163 11.8865 14.6246 11.5456 15 11.12C15.373 11.5503 15.8336 11.8961 16.3509 12.134C16.8683 12.372 17.4305 12.4968 18 12.5V20.5ZM18 10.5C17.4696 10.5 16.9609 10.2893 16.5858 9.91423C16.2107 9.53915 16 9.03045 16 8.50001C16 8.2348 15.8946 7.98044 15.7071 7.79291C15.5196 7.60537 15.2652 7.50001 15 7.50001C14.7348 7.50001 14.4804 7.60537 14.2929 7.79291C14.1054 7.98044 14 8.2348 14 8.50001C14 9.03045 13.7893 9.53915 13.4142 9.91423C13.0391 10.2893 12.5304 10.5 12 10.5C11.4696 10.5 10.9609 10.2893 10.5858 9.91423C10.2107 9.53915 10 9.03045 10 8.50001C10 8.2348 9.89464 7.98044 9.70711 7.79291C9.51957 7.60537 9.26522 7.50001 9 7.50001C8.73478 7.50001 8.48043 7.60537 8.29289 7.79291C8.10536 7.98044 8 8.2348 8 8.50001C8.00985 8.76266 7.96787 9.02467 7.87646 9.27109C7.78505 9.51751 7.646 9.74351 7.46725 9.93619C7.28849 10.1289 7.07354 10.2845 6.83466 10.3941C6.59578 10.5037 6.33764 10.5652 6.075 10.575C5.54457 10.5949 5.02796 10.4033 4.63882 10.0423C4.44614 9.86351 4.29055 9.64855 4.18094 9.40967C4.07133 9.17079 4.00985 8.91266 4 8.65001L5.68 4.50001H18.32L20 8.65001C19.9621 9.15403 19.7348 9.625 19.3637 9.96822C18.9927 10.3114 18.5054 10.5014 18 10.5Z" fill="#D84E00"/>
</svg>
