<svg width="24" height="25" viewBox="0 0 24 25" fill="none" xmlns="http://www.w3.org/2000/svg">
<path d="M10.17 11.05C10.2507 11.1744 10.3581 11.2794 10.4843 11.3572C10.6106 11.4351 10.7526 11.4838 10.9 11.5C11.0481 11.515 11.1976 11.4967 11.3378 11.4466C11.4779 11.3964 11.6051 11.3156 11.71 11.21L12.84 10.07L14.17 12.07C14.2629 12.2039 14.387 12.313 14.5317 12.388C14.6763 12.4629 14.8371 12.5014 15 12.5C15.1966 12.5022 15.389 12.4428 15.55 12.33C15.7692 12.1834 15.9216 11.9561 15.9741 11.6976C16.0265 11.4392 15.9747 11.1705 15.83 10.95L13.83 7.95C13.7493 7.82555 13.6419 7.72061 13.5157 7.64278C13.3894 7.56495 13.2474 7.51618 13.1 7.5C12.9519 7.48501 12.8024 7.50327 12.6622 7.55344C12.5221 7.60361 12.3949 7.68443 12.29 7.79L11.16 8.93L9.83 6.93C9.76423 6.80739 9.67359 6.69985 9.56389 6.61426C9.45419 6.52867 9.32783 6.46692 9.1929 6.43295C9.05797 6.39898 8.91743 6.39355 8.78028 6.41699C8.64313 6.44044 8.51238 6.49225 8.39639 6.5691C8.28041 6.64596 8.18174 6.74618 8.10669 6.86335C8.03165 6.98052 7.98188 7.11206 7.96057 7.24955C7.93926 7.38705 7.94688 7.52749 7.98294 7.66187C8.01901 7.79626 8.08272 7.92164 8.17 8.03L10.17 11.05ZM21 14.5H20V4.5H21C21.2652 4.5 21.5196 4.39464 21.7071 4.20711C21.8946 4.01957 22 3.76522 22 3.5C22 3.23478 21.8946 2.98043 21.7071 2.79289C21.5196 2.60536 21.2652 2.5 21 2.5H3C2.73478 2.5 2.48043 2.60536 2.29289 2.79289C2.10536 2.98043 2 3.23478 2 3.5C2 3.76522 2.10536 4.01957 2.29289 4.20711C2.48043 4.39464 2.73478 4.5 3 4.5H4V14.5H3C2.73478 14.5 2.48043 14.6054 2.29289 14.7929C2.10536 14.9804 2 15.2348 2 15.5C2 15.7652 2.10536 16.0196 2.29289 16.2071C2.48043 16.3946 2.73478 16.5 3 16.5H11V17.65L6.45 20.65C6.26333 20.7655 6.11988 20.9393 6.04177 21.1445C5.96366 21.3496 5.95523 21.5748 6.01779 21.7852C6.08035 21.9957 6.21042 22.1797 6.38793 22.3089C6.56544 22.438 6.78053 22.5052 7 22.5C7.1966 22.5022 7.38896 22.4428 7.55 22.33L11 20.05V21.5C11 21.7652 11.1054 22.0196 11.2929 22.2071C11.4804 22.3946 11.7348 22.5 12 22.5C12.2652 22.5 12.5196 22.3946 12.7071 22.2071C12.8946 22.0196 13 21.7652 13 21.5V20.05L16.45 22.33C16.611 22.4428 16.8034 22.5022 17 22.5C17.2136 22.4984 17.4212 22.4283 17.5921 22.3002C17.7631 22.172 17.8885 21.9925 17.95 21.7879C18.0115 21.5832 18.0058 21.3643 17.9338 21.1631C17.8619 20.962 17.7273 20.7892 17.55 20.67L13 17.67V16.5H21C21.2652 16.5 21.5196 16.3946 21.7071 16.2071C21.8946 16.0196 22 15.7652 22 15.5C22 15.2348 21.8946 14.9804 21.7071 14.7929C21.5196 14.6054 21.2652 14.5 21 14.5ZM18 14.5H6V4.5H18V14.5Z" fill="#D84E00"/>
</svg>
