<svg width="24" height="25" viewBox="0 0 24 25" fill="none" xmlns="http://www.w3.org/2000/svg">
<path d="M20.1801 10.69C19.4608 10.5598 18.7311 10.4962 18.0001 10.5C17.5801 10.5 17.1701 10.5 16.7601 10.58C16.2497 9.89888 15.5982 9.33605 14.8501 8.93C15.4927 8.22825 15.8494 7.31148 15.8501 6.36C15.8501 5.33626 15.4435 4.35446 14.7196 3.63057C13.9957 2.90668 13.0139 2.5 11.9901 2.5C10.9664 2.5 9.98459 2.90668 9.2607 3.63057C8.53681 4.35446 8.13013 5.33626 8.13013 6.36C8.13087 7.31148 8.48759 8.22825 9.13013 8.93C8.38653 9.33816 7.73606 9.89668 7.22013 10.57C6.83013 10.5 6.42013 10.5 6.00013 10.5C5.26856 10.5028 4.5388 10.5731 3.82013 10.71C3.58718 10.7526 3.3769 10.8765 3.22673 11.0596C3.07657 11.2427 2.99627 11.4732 3.00013 11.71V19.96C2.99989 20.1069 3.03203 20.2521 3.09425 20.3852C3.15647 20.5182 3.24725 20.636 3.36013 20.73C3.4723 20.8246 3.60391 20.8933 3.74563 20.9313C3.88734 20.9694 4.03568 20.9757 4.18013 20.95C4.77854 20.8197 5.3879 20.746 6.00013 20.73C7.93723 20.7279 9.8323 21.2947 11.4501 22.36L11.5801 22.41C11.7128 22.4676 11.8555 22.4982 12.0001 22.5C12.0956 22.4988 12.1902 22.4819 12.2801 22.45H12.3501L12.4801 22.4C14.1134 21.3073 16.0351 20.7259 18.0001 20.73C18.6111 20.7328 19.2204 20.7931 19.8201 20.91C19.9646 20.9357 20.1129 20.9294 20.2546 20.8913C20.3964 20.8533 20.528 20.7846 20.6401 20.69C20.753 20.596 20.8438 20.4782 20.906 20.3452C20.9682 20.2121 21.0004 20.0669 21.0001 19.92V11.67C20.9993 11.4366 20.9168 11.2109 20.7671 11.0319C20.6173 10.853 20.4097 10.732 20.1801 10.69ZM12.0001 4.5C12.4686 4.53442 12.9067 4.7448 13.2264 5.08888C13.5461 5.43297 13.7238 5.88529 13.7238 6.355C13.7238 6.82471 13.5461 7.27703 13.2264 7.62112C12.9067 7.9652 12.4686 8.17558 12.0001 8.21C11.5317 8.17558 11.0936 7.9652 10.7739 7.62112C10.4541 7.27703 10.2764 6.82471 10.2764 6.355C10.2764 5.88529 10.4541 5.43297 10.7739 5.08888C11.0936 4.7448 11.5317 4.53442 12.0001 4.5ZM11.0001 19.83C9.43281 19.1055 7.7268 18.7302 6.00013 18.73C5.67013 18.73 5.34013 18.73 5.00013 18.78V12.5C5.8387 12.4062 6.68595 12.423 7.52013 12.55H7.63013C8.82173 12.769 9.96361 13.2027 11.0001 13.83V19.83ZM12.0001 12.1C11.5555 11.8435 11.0945 11.6163 10.6201 11.42H10.5601C10.2301 11.29 9.90013 11.16 9.56013 11.06C10.2544 10.5074 11.1128 10.2013 12.0001 10.19C12.8851 10.1956 13.7432 10.4945 14.4401 11.04C13.5912 11.305 12.7732 11.6604 12.0001 12.1ZM19.0001 18.78C16.9468 18.5737 14.8756 18.9189 13.0001 19.78V13.78C14.0385 13.1688 15.1811 12.7552 16.3701 12.56H16.5701C17.3741 12.4348 18.191 12.4146 19.0001 12.5V18.78Z" fill="#D84E00"/>
</svg>
