<svg width="19" height="19" viewBox="0 0 19 19" fill="none" xmlns="http://www.w3.org/2000/svg">
<path d="M17.21 0.799988H1.19001C0.927448 0.799988 0.675638 0.904291 0.489977 1.08995C0.304316 1.27561 0.200012 1.52742 0.200012 1.78999V17.81C0.200012 17.94 0.225619 18.0687 0.275372 18.1888C0.325124 18.309 0.398047 18.4181 0.489977 18.51C0.581907 18.602 0.691043 18.6749 0.811156 18.7246C0.931268 18.7744 1.06 18.8 1.19001 18.8H9.81201V11.825H7.47201V9.12499H9.81201V7.09999C9.76354 6.62457 9.81967 6.1443 9.97646 5.69287C10.1332 5.24144 10.3869 4.82978 10.7196 4.48676C11.0524 4.14374 11.4561 3.87766 11.9026 3.7072C12.349 3.53674 12.8273 3.46601 13.304 3.49999C14.0045 3.49568 14.7047 3.53174 15.401 3.60799V6.03799H13.97C12.836 6.03799 12.62 6.57799 12.62 7.36099V9.09799H15.32L14.969 11.798H12.62V18.8H17.21C17.34 18.8 17.4688 18.7744 17.5889 18.7246C17.709 18.6749 17.8181 18.602 17.91 18.51C18.002 18.4181 18.0749 18.309 18.1247 18.1888C18.1744 18.0687 18.2 17.94 18.2 17.81V1.78999C18.2 1.65998 18.1744 1.53124 18.1247 1.41113C18.0749 1.29102 18.002 1.18188 17.91 1.08995C17.8181 0.998022 17.709 0.925099 17.5889 0.875347C17.4688 0.825595 17.34 0.799988 17.21 0.799988Z" fill="#003865"/>
</svg>
