<svg width="184" height="36" viewBox="0 0 184 36" fill="none" xmlns="http://www.w3.org/2000/svg">
<g clip-path="url(#clip0_246_690)">
<path d="M108.421 16.2813L105.42 11.138H101.824V16.2813H100.542V3.45447H105.67C106.734 3.45447 107.641 3.83081 108.391 4.58348C109.141 5.33615 109.517 6.24563 109.517 7.31192C109.517 8.19003 109.266 8.94271 108.735 9.63266C108.202 10.3226 107.546 10.7617 106.764 11.0125L109.891 16.3127H108.421V16.2813ZM101.824 4.64619V9.91492H105.67C106.389 9.91492 106.983 9.66402 107.484 9.13088C107.984 8.59773 108.234 8.00187 108.234 7.28056C108.234 6.55925 107.984 5.93202 107.484 5.39887C106.983 4.89709 106.389 4.61483 105.67 4.61483H101.824V4.64619Z" fill="#003865"/>
<path d="M115.27 6.87286C116.615 6.87286 117.709 7.34329 118.554 8.31549C119.398 9.2877 119.804 10.4167 119.804 11.7025C119.804 11.8279 119.804 12.0161 119.774 12.267H111.737C111.862 13.2079 112.238 13.9292 112.926 14.4623C113.582 14.9955 114.395 15.2777 115.396 15.2777C116.084 15.2777 116.678 15.1209 117.21 14.8387C117.709 14.5564 118.085 14.1801 118.366 13.7097L119.43 14.3369C119.023 14.9955 118.491 15.4973 117.773 15.8736C117.084 16.2499 116.271 16.4381 115.396 16.4381C113.957 16.4381 112.801 15.9991 111.894 15.0895C110.987 14.1801 110.549 13.0511 110.549 11.6398C110.549 10.2599 110.987 9.13089 111.894 8.22141C112.738 7.34329 113.863 6.87286 115.27 6.87286ZM115.27 8.0646C114.333 8.0646 113.519 8.34685 112.894 8.91136C112.269 9.47586 111.862 10.2285 111.737 11.1067H118.554C118.429 10.1345 118.054 9.38178 117.428 8.84864C116.834 8.31549 116.115 8.0646 115.27 8.0646Z" fill="#003865"/>
<path d="M126.308 8.28408H123.682V13.835C123.682 14.3369 123.775 14.6818 123.963 14.9013C124.151 15.1208 124.464 15.215 124.839 15.2463C125.214 15.2463 125.715 15.2463 126.308 15.215V16.2812C125.027 16.4695 124.057 16.3753 123.431 15.999C122.806 15.6226 122.462 14.9013 122.462 13.835V8.28408H120.555V7.1237H122.462V4.9284L123.682 4.55206V7.1237H126.308V8.28408Z" fill="#003865"/>
<path d="M135.627 7.0924H136.846V16.2499H135.627V14.4623C134.782 15.8109 133.562 16.4695 131.937 16.4695C130.623 16.4695 129.529 15.9991 128.59 15.0895C127.684 14.1487 127.215 13.0198 127.215 11.6711C127.215 10.3226 127.684 9.19361 128.59 8.25277C129.497 7.31193 130.623 6.87286 131.937 6.87286C133.562 6.87286 134.782 7.53146 135.627 8.88V7.0924ZM129.467 14.2741C130.154 14.9641 130.999 15.3405 132.03 15.3405C133.031 15.3405 133.906 14.9955 134.594 14.2741C135.283 13.5842 135.627 12.7061 135.627 11.7025C135.627 10.6989 135.283 9.82084 134.594 9.13089C133.906 8.44094 133.062 8.0646 132.03 8.0646C131.029 8.0646 130.154 8.40958 129.467 9.13089C128.779 9.82084 128.435 10.6989 128.435 11.7025C128.403 12.7061 128.779 13.5529 129.467 14.2741Z" fill="#003865"/>
<path d="M140.599 4.89707C140.442 5.05389 140.223 5.14796 139.973 5.14796C139.722 5.14796 139.535 5.05389 139.348 4.89707C139.191 4.74026 139.097 4.52074 139.097 4.26985C139.097 4.01895 139.191 3.83079 139.348 3.64261C139.503 3.48581 139.722 3.39172 139.973 3.39172C140.223 3.39172 140.41 3.48581 140.599 3.64261C140.754 3.79942 140.848 4.01895 140.848 4.26985C140.848 4.52074 140.786 4.74026 140.599 4.89707ZM139.379 16.2812V7.09238H140.599V16.2499H139.379V16.2812Z" fill="#003865"/>
<path d="M143.131 16.2812V2.88989H144.351V16.2812H143.131Z" fill="#003865"/>
<path d="M103.357 33.5928L99.6355 20.766H100.98L104.138 31.868L107.484 20.766H108.985L112.299 31.868L115.458 20.766H116.802L113.113 33.5928H111.581L108.234 22.4595L104.889 33.5928H103.357Z" fill="#003865"/>
<path d="M119.491 22.2399C119.334 22.3967 119.116 22.4907 118.866 22.4907C118.616 22.4907 118.428 22.3967 118.24 22.2399C118.084 22.0831 117.991 21.8636 117.991 21.6126C117.991 21.3617 118.084 21.1735 118.24 20.9854C118.397 20.8286 118.616 20.7346 118.866 20.7346C119.116 20.7346 119.304 20.8286 119.491 20.9854C119.648 21.1422 119.742 21.3617 119.742 21.6126C119.742 21.8636 119.679 22.0831 119.491 22.2399ZM118.272 33.5927V24.4351H119.491V33.5927H118.272Z" fill="#003865"/>
<path d="M126.871 25.6269H124.245V31.1778C124.245 31.6796 124.338 32.0247 124.526 32.2442C124.714 32.4636 125.027 32.5578 125.401 32.5891C125.777 32.5891 126.278 32.5891 126.871 32.5578V33.624C125.59 33.8122 124.62 33.7181 123.994 33.3418C123.369 32.9654 123.025 32.2442 123.025 31.1778V25.6269H121.118V24.4665H123.025V22.2712L124.245 21.8949V24.4665H126.871V25.6269Z" fill="#003865"/>
<path d="M133.157 24.2157C134.251 24.2157 135.126 24.5607 135.783 25.2193C136.409 25.9092 136.752 26.8188 136.752 27.9478V33.5614H135.534V27.9791C135.534 27.1637 135.315 26.5365 134.877 26.066C134.438 25.627 133.845 25.3761 133.031 25.3761C132.156 25.3761 131.437 25.6584 130.906 26.2228C130.343 26.7874 130.092 27.6342 130.092 28.7945V33.5928H128.873V20.766H130.092V25.8465C130.781 24.7803 131.812 24.2157 133.157 24.2157Z" fill="#003865"/>
<path d="M150.917 26.9442C151.542 27.2264 152.043 27.6342 152.418 28.1673C152.793 28.7004 152.981 29.3276 152.981 30.0176C152.981 31.0212 152.637 31.8366 151.949 32.5579C151.261 33.2478 150.417 33.5928 149.417 33.5928H143.85V20.766H149.01C149.948 20.766 150.76 21.111 151.449 21.7695C152.105 22.4595 152.449 23.2435 152.449 24.1844C152.418 25.4075 151.918 26.317 150.917 26.9442ZM149.01 21.9891H145.132V26.4738H149.01C149.604 26.4738 150.104 26.2543 150.542 25.8152C150.949 25.3761 151.168 24.843 151.168 24.2157C151.168 23.6198 150.949 23.0867 150.542 22.6477C150.104 22.2086 149.604 21.9891 149.01 21.9891ZM149.417 32.4011C150.042 32.4011 150.573 32.1816 151.042 31.7112C151.48 31.2407 151.699 30.7076 151.699 30.049C151.699 29.3904 151.48 28.8572 151.042 28.3869C150.605 27.9164 150.073 27.6968 149.417 27.6968H145.132V32.4324H149.417V32.4011Z" fill="#003865"/>
<path d="M156.201 25.972C156.764 24.8743 157.733 24.3099 159.078 24.3099V25.4702C158.265 25.4702 157.546 25.7211 157.015 26.1915C156.452 26.6933 156.201 27.446 156.201 28.5122V33.5928H154.982V24.4352H156.201V25.972Z" fill="#003865"/>
<path d="M161.955 22.2399C161.798 22.3967 161.579 22.4907 161.33 22.4907C161.08 22.4907 160.892 22.3967 160.704 22.2399C160.548 22.0831 160.453 21.8636 160.453 21.6126C160.453 21.3617 160.548 21.1735 160.704 20.9854C160.861 20.8286 161.08 20.7346 161.33 20.7346C161.579 20.7346 161.768 20.8286 161.955 20.9854C162.112 21.1422 162.205 21.3617 162.205 21.6126C162.205 21.8636 162.112 22.0831 161.955 22.2399ZM160.735 33.5927V24.4351H161.955V33.5927H160.735Z" fill="#003865"/>
<path d="M172.337 24.4352H173.557V33.5927H172.337V31.8051C171.492 33.1537 170.274 33.8123 168.647 33.8123C167.334 33.8123 166.239 33.3419 165.302 32.4324C164.395 31.4915 163.925 30.3625 163.925 29.014C163.925 27.6655 164.395 26.5364 165.302 25.5956C166.208 24.6548 167.334 24.2157 168.647 24.2157C170.274 24.2157 171.492 24.8743 172.337 26.2228V24.4352ZM166.177 31.5856C166.864 32.2756 167.709 32.6519 168.74 32.6519C169.741 32.6519 170.617 32.3069 171.305 31.5856C171.993 30.8957 172.337 30.0175 172.337 29.014C172.337 28.0104 171.993 27.1323 171.305 26.4424C170.617 25.7524 169.773 25.3761 168.74 25.3761C167.74 25.3761 166.864 25.721 166.177 26.4424C165.489 27.1323 165.145 28.0104 165.145 29.014C165.145 30.049 165.489 30.8957 166.177 31.5856Z" fill="#003865"/>
<path d="M180.404 24.2157C181.499 24.2157 182.374 24.5607 183.031 25.2193C183.656 25.9092 184 26.8187 184 27.9477V33.5614H182.78V27.9791C182.78 27.1637 182.562 26.5364 182.124 26.066C181.686 25.627 181.092 25.3761 180.279 25.3761C179.404 25.3761 178.684 25.6583 178.153 26.2228C177.59 26.7874 177.339 27.6341 177.339 28.7945V33.5927H176.12V24.4352H177.339V25.8778C177.996 24.7802 179.028 24.2157 180.404 24.2157Z" fill="#003865"/>
<path d="M92.2886 0H91.8727V36H92.2886V0Z" fill="#003865"/>
<path d="M24.4691 30.1219L20.8841 23.1894C20.059 21.5524 18.7501 20.257 17.1284 19.4455C19.7603 19.2462 21.9795 18.4206 23.587 17.0541C25.3796 15.5308 26.3186 13.4241 26.3186 10.9899C26.3186 5.60894 22.5343 2.5199 15.9476 2.5199H0.0284525L0 3.08931C1.6787 3.2459 2.98751 4.69789 2.98751 6.39188V29.6806C2.98751 31.4458 1.7356 32.8266 0 32.9832L0.0284525 33.5526H11.822L11.8505 32.9832C10.1718 32.8266 8.86294 31.3746 8.86294 29.6806V19.531C11.253 19.5451 12.5048 19.8014 13.4437 21.6235L18.0531 30.6344C18.1384 30.791 18.1811 31.0473 18.1811 31.3462C18.1811 32.2572 17.5694 32.9547 16.73 33.0259L16.7585 33.5953H28.5521L28.5805 33.0259C26.8164 32.8266 25.28 31.7305 24.4691 30.1219ZM12.9032 18.563H8.89139V3.4879H12.9032C17.043 3.4879 20.4146 6.86164 20.4146 11.0183C20.4146 15.175 17.043 18.563 12.9032 18.563Z" fill="#003865"/>
<path d="M82.3126 19.6449C81.0181 18.3353 79.2399 17.3815 77.3905 16.9687C80.3637 16.0576 82.5261 13.3102 82.5261 10.0789C82.5261 5.65173 78.6424 2.56268 73.0941 2.56268H58.3273L58.2988 3.1321C59.75 3.2602 60.9165 4.31362 61.201 5.77983C61.201 5.89372 61.1725 6.0076 61.1299 6.16419L54.0452 30.8054L46.9321 6.16419V6.14996C46.861 5.9649 46.861 5.75137 46.861 5.53784C46.861 4.32785 47.7999 3.28868 48.9949 3.1748L48.9664 2.60539H37.1729L37.1444 3.1748C38.8658 3.33139 40.3596 4.58408 40.8432 6.30655L43.7739 16.4278L39.6341 30.8195L32.5352 6.13572C32.4498 5.89372 32.4071 5.63749 32.4071 5.45242C32.4071 4.25667 33.346 3.24597 34.5268 3.14633L34.4984 2.57692H22.7048L22.6763 3.14633C24.3977 3.30292 25.8915 4.55561 26.4036 6.27807L34.3134 33.6381H40.4307L40.3027 33.268C40.2316 33.0402 40.1746 32.727 40.1746 32.4993C40.1746 32.243 40.2173 31.9868 40.3027 31.7306L44.2291 18.1502L48.6819 33.6523H54.8561L54.7707 33.268C54.6996 33.0402 54.6427 32.727 54.6427 32.4993C54.6427 32.243 54.6853 31.9868 54.7707 31.7164L61.2579 9.12511V29.7661C61.2579 31.4886 59.9775 32.9121 58.2703 33.0687L58.2988 33.6381H74.218C80.321 33.6381 84.5889 30.1648 84.5889 25.1824C84.6174 23.0756 83.8206 21.1681 82.3126 19.6449ZM78.7135 25.1112C78.7135 29.2821 75.3418 32.6702 71.202 32.6702H67.1903V17.5951H71.202C75.3561 17.5951 78.7135 20.9688 78.7135 25.1112ZM67.2044 16.6271V3.48797H70.1066C73.7058 3.48797 76.6507 6.43465 76.6507 10.0646C76.6507 13.6804 73.7201 16.6128 70.1066 16.6128H67.2044V16.6271Z" fill="#003865"/>
</g>
<defs>
<clipPath id="clip0_246_690">
<rect width="184" height="36" fill="white"/>
</clipPath>
</defs>
</svg>
