<svg width="16" height="12" viewBox="0 0 16 12" fill="none" xmlns="http://www.w3.org/2000/svg">
<path fill-rule="evenodd" clip-rule="evenodd" d="M0.833328 4.00002C0.833328 1.88293 2.54957 0.166687 4.66666 0.166687H11.3333C13.4504 0.166687 15.1667 1.88293 15.1667 4.00002V8.00002C15.1667 10.1171 13.4504 11.8334 11.3333 11.8334H4.66666C2.54957 11.8334 0.833328 10.1171 0.833328 8.00002V4.00002ZM4.29998 3.59994C4.07907 3.43425 3.76567 3.47903 3.59998 3.69994C3.4343 3.92085 3.47907 4.23425 3.69998 4.39994L6.89998 6.79994C7.55184 7.28883 8.44813 7.28883 9.09999 6.79994L12.3 4.39994C12.5209 4.23425 12.5657 3.92085 12.4 3.69994C12.2343 3.47903 11.9209 3.43425 11.7 3.59994L8.49998 5.99994C8.20369 6.22216 7.79628 6.22216 7.49998 5.99994L4.29998 3.59994Z" fill="#003865"/>
</svg>
