<svg width="19" height="16" viewBox="0 0 19 16" fill="none" xmlns="http://www.w3.org/2000/svg">
<path d="M18.5 2.21996C17.8235 2.51344 17.1081 2.70745 16.376 2.79596C17.1484 2.33455 17.7271 1.60866 18.005 0.752957C17.2792 1.18501 16.4847 1.48942 15.656 1.65296C15.1021 1.05227 14.3645 0.652423 13.5588 0.516123C12.7532 0.379823 11.9251 0.514779 11.2044 0.899827C10.4837 1.28488 9.91124 1.89823 9.57672 2.64371C9.24219 3.38918 9.16456 4.22461 9.356 5.01896C7.88848 4.94473 6.453 4.56261 5.14279 3.89743C3.83258 3.23225 2.67696 2.29888 1.751 1.15796C1.42622 1.72511 1.25557 2.3674 1.256 3.02096C1.25485 3.6279 1.4038 4.22571 1.68958 4.76116C1.97536 5.29662 2.38912 5.7531 2.894 6.08996C2.30718 6.07399 1.7329 5.91653 1.22 5.63096V5.67596C1.2244 6.52636 1.52239 7.34914 2.06358 8.00513C2.60477 8.66111 3.35593 9.11003 4.19 9.27596C3.86893 9.37367 3.53559 9.42518 3.2 9.42896C2.9677 9.42624 2.73598 9.40518 2.507 9.36596C2.74452 10.0975 3.20416 10.7368 3.82197 11.1949C4.43977 11.653 5.18502 11.9072 5.954 11.922C4.65548 12.9437 3.05229 13.5013 1.4 13.506C1.09916 13.5069 0.798562 13.4889 0.5 13.452C2.18699 14.5412 4.15293 15.1194 6.161 15.117C7.54672 15.1313 8.92142 14.8695 10.2048 14.3466C11.4882 13.8238 12.6545 13.0505 13.6357 12.0718C14.6168 11.0932 15.3932 9.92881 15.9193 8.64677C16.4454 7.36474 16.7108 5.99071 16.7 4.60496C16.7 4.45196 16.7 4.28996 16.7 4.12796C17.4062 3.60129 18.0153 2.95564 18.5 2.21996Z" fill="#003865"/>
</svg>
