<svg width="21" height="15" viewBox="0 0 21 15" fill="none" xmlns="http://www.w3.org/2000/svg">
<path d="M20.7 5.73897C20.7445 4.45076 20.4628 3.17219 19.881 2.02197C19.4863 1.55001 18.9385 1.23151 18.333 1.12197C15.8288 0.894746 13.3142 0.801613 10.8 0.842973C8.29501 0.799736 5.78946 0.889864 3.29402 1.11297C2.80066 1.20272 2.34409 1.43413 1.98002 1.77897C1.17002 2.52597 1.08002 3.80397 0.990024 4.88397C0.859445 6.82578 0.859445 8.77417 0.990024 10.716C1.01606 11.3238 1.10657 11.9272 1.26002 12.516C1.36854 12.9705 1.58809 13.3911 1.89902 13.74C2.26557 14.1031 2.73277 14.3477 3.24002 14.442C5.18035 14.6815 7.13542 14.7807 9.09002 14.739C12.24 14.784 15.003 14.739 18.27 14.487C18.7897 14.3985 19.2701 14.1536 19.647 13.785C19.899 13.5329 20.0872 13.2244 20.196 12.885C20.5179 11.8973 20.676 10.8637 20.664 9.82497C20.7 9.32097 20.7 6.27897 20.7 5.73897ZM8.76602 10.365V4.79397L14.094 7.59297C12.6 8.42097 10.629 9.35697 8.76602 10.365Z" fill="#003865"/>
</svg>
