<svg width="179" height="55" viewBox="0 0 179 55" fill="none" xmlns="http://www.w3.org/2000/svg">
<path fill-rule="evenodd" clip-rule="evenodd" d="M111.082 43.0446C100.617 50.6553 85.6333 54.6985 72.7901 54.6985C54.7146 54.6985 38.3039 48.0391 25.9364 36.8608C24.9851 35.9095 25.9365 34.7203 26.8878 35.4338C40.2066 43.2824 56.8552 47.8013 73.7415 47.8013C85.1576 47.8013 98.0007 45.4229 109.655 40.4284C111.32 39.9527 112.747 41.8554 111.082 43.0446Z" fill="white"/>
<path fill-rule="evenodd" clip-rule="evenodd" d="M115.363 38.0504C113.936 36.3855 106.563 37.3369 103.233 37.5747C102.282 37.8125 102.044 36.8612 102.995 36.1477C108.941 31.8666 118.693 33.2936 119.882 34.4828C121.071 35.9098 119.644 45.6611 113.936 50.4179C112.984 51.1314 112.271 50.6557 112.747 49.7043C113.698 46.8503 116.552 39.953 115.363 38.0504Z" fill="white"/>
<path fill-rule="evenodd" clip-rule="evenodd" d="M103.471 6.89374V2.85054C103.471 2.13703 103.947 1.89917 104.422 1.89917H122.498C122.974 1.89917 123.449 2.37486 123.449 2.85054V6.41808C123.449 6.89375 122.974 7.84507 122.022 9.03425L112.509 22.5909C116.076 22.5909 119.644 23.0666 122.974 24.7314C123.687 25.2071 123.925 25.6828 123.925 26.3963V30.6773C123.925 31.153 123.211 31.8665 122.498 31.6287C116.79 28.7746 109.417 28.299 103.233 31.6287C102.52 31.8665 102.044 31.3908 102.044 30.6773V26.3963C102.044 25.6828 102.044 24.7314 102.758 23.5423L113.698 7.84507H104.185C103.947 7.84507 103.471 7.36941 103.471 6.89374Z" fill="white"/>
<path fill-rule="evenodd" clip-rule="evenodd" d="M37.115 32.1042H31.6448C31.1691 32.1042 30.6934 31.6285 30.6934 31.1528V2.85037C30.6934 2.3747 31.1691 1.899 31.6448 1.899H36.8772C37.3529 1.899 37.8284 2.3747 37.8284 2.85037V6.65572C39.2555 3.08818 41.6339 1.42334 45.2014 1.42334C48.769 1.42334 50.9095 3.08818 52.3365 6.65572C53.7635 3.08818 56.6176 1.42334 59.9473 1.42334C62.3257 1.42334 64.7039 2.37469 66.3688 4.51522C68.0336 6.89358 67.7959 10.4611 67.7959 13.3151V31.1528C67.7959 31.6285 67.3201 32.1042 66.8445 32.1042H61.3743C60.8986 32.1042 60.4229 31.6285 60.4229 31.1528V16.1692C60.4229 14.98 60.4229 11.8881 60.1851 10.9368C59.7094 9.03409 58.5202 8.55842 56.8553 8.55842C55.4283 8.55842 54.0014 9.50976 53.5257 10.9368C53.05 12.3638 53.05 14.7422 53.05 16.407V31.3907C53.05 31.8664 52.5743 32.342 52.0986 32.342H46.6284C46.1527 32.342 45.6771 31.8664 45.6771 31.3907V16.407C45.6771 13.3151 46.1528 8.55842 42.3474 8.55842C38.3042 8.55842 38.5421 13.0773 38.5421 16.407V31.3907C38.0664 31.6285 37.5906 32.1042 37.115 32.1042Z" fill="white"/>
<path fill-rule="evenodd" clip-rule="evenodd" d="M139.384 1.18494C147.709 1.18494 151.99 8.32004 151.99 17.12C151.99 25.6821 146.995 32.5793 139.384 32.5793C131.298 32.5793 127.017 25.4442 127.017 16.6443C126.779 8.08218 131.298 1.18494 139.384 1.18494ZM139.384 7.13084C135.341 7.13084 135.103 12.6011 135.103 16.1686C135.103 19.7362 135.103 27.1091 139.384 27.1091C143.665 27.1091 143.903 21.1632 143.903 17.5956C143.903 15.2173 143.903 12.3633 143.19 9.9849C142.476 7.84437 141.049 7.13084 139.384 7.13084Z" fill="white"/>
<path fill-rule="evenodd" clip-rule="evenodd" d="M162.692 32.1036H157.222C156.746 32.1036 156.271 31.628 156.271 31.1523V2.84982C156.271 2.37415 156.746 1.89845 157.222 1.89845H162.454C162.93 1.89845 163.406 2.1363 163.406 2.61197V6.89302C165.071 3.08765 167.211 1.18494 171.016 1.18494C173.395 1.18494 176.011 2.1363 177.438 4.51466C178.865 6.89302 178.865 10.6984 178.865 13.3146V31.1523C178.865 31.628 178.389 32.1036 177.914 32.1036H172.443C171.968 32.1036 171.492 31.628 171.492 31.1523V15.6929C171.492 12.6011 171.968 8.0822 167.925 8.0822C166.497 8.0822 165.308 9.03355 164.833 10.4606C164.119 12.1254 163.881 14.0281 163.881 15.9308V31.1523C163.643 31.628 163.168 32.1036 162.692 32.1036Z" fill="white"/>
<path fill-rule="evenodd" clip-rule="evenodd" d="M88.9631 18.5476C88.9631 20.6881 88.9632 22.5908 88.0118 24.4935C87.0605 26.1584 85.6334 27.1097 84.2064 27.1097C82.0659 27.1097 80.8768 25.4449 80.8768 23.0665C80.8768 18.3098 85.1578 17.5963 89.201 17.5963V18.5476H88.9631ZM94.4334 32.1042C93.9578 32.3421 93.4821 32.3421 93.2443 32.3421C91.3416 30.9151 91.1036 30.2016 90.1523 28.5367C87.0604 31.6286 84.9199 32.58 81.1145 32.58C76.3578 32.58 72.7903 29.7259 72.7903 24.0178C72.7903 19.499 75.1686 16.4071 78.7362 14.9801C81.828 13.553 85.8713 13.3152 89.201 13.0774V12.3639C89.201 10.9369 89.2011 9.50983 88.4875 8.32065C87.774 7.3693 86.5847 6.89365 85.3956 6.89365C83.255 6.89365 81.3524 8.08282 80.8768 10.2233C80.8768 10.699 80.401 11.1747 79.9254 11.1747L74.4552 10.699C73.9795 10.699 73.5038 10.2233 73.7417 9.50983C74.9309 3.08826 80.8768 0.947754 86.1092 0.947754C88.7254 0.947754 92.2929 1.66125 94.4334 3.80178C97.0496 6.41797 96.8118 9.74768 96.8118 13.3152V21.8773C96.8118 24.4935 98.0009 25.6827 98.9522 27.1097C99.1901 27.5854 99.4279 28.2989 98.9522 28.5367C97.5252 29.4881 95.6226 31.1529 94.4334 32.1042Z" fill="white"/>
<path fill-rule="evenodd" clip-rule="evenodd" d="M16.4232 18.5476C16.4232 20.6881 16.4233 22.5908 15.4719 24.4935C14.5206 26.1584 13.0935 27.1097 11.6664 27.1097C9.52592 27.1097 8.33683 25.4449 8.33683 23.0665C8.33683 18.3098 12.6179 17.5963 16.6611 17.5963V18.5476H16.4232ZM21.8935 32.1042C21.4178 32.3421 20.9421 32.3421 20.4664 32.3421C18.5637 30.9151 18.3259 30.2016 17.3746 28.5367C14.2827 31.6286 12.1422 32.58 8.33683 32.58C3.58011 32.58 0.0125732 29.7259 0.0125732 24.0178C0.0125732 19.499 2.39093 16.4071 5.95847 14.9801C9.05034 13.553 13.0935 13.3152 16.4232 13.0774V12.3639C16.4232 10.9369 16.4232 9.50983 15.7097 8.32065C14.9962 7.3693 13.807 6.89365 12.6179 6.89365C10.4773 6.89365 8.57458 8.08282 8.09891 10.2233C8.09891 10.699 7.62332 11.1747 7.14765 11.1747L1.67738 10.699C1.20171 10.699 0.726067 10.2233 0.963903 9.50983C2.15308 3.08826 8.09894 0.947754 13.3313 0.947754C15.9475 0.947754 19.5151 1.66125 21.6556 3.80178C24.2718 6.41797 24.0339 9.74768 24.0339 13.3152V21.8773C24.0339 24.4935 25.2232 25.6827 26.1745 27.1097C26.4124 27.5854 26.6502 28.2989 26.1745 28.5367C24.9853 29.4881 23.0827 31.1529 21.8935 32.1042Z" fill="white"/>
</svg>
