<svg width="211" height="49" viewBox="0 0 211 49" fill="none" xmlns="http://www.w3.org/2000/svg">
<path fill-rule="evenodd" clip-rule="evenodd" d="M44.8594 47.9651H55.0085V0.0253906H44.8594V47.9651ZM109.124 20.2441V15.9562H108.996V15.9544H100.139V15.9562H99.6415V47.9651H109.24V31.1899C109.24 26.3223 114.695 24.1872 118.439 25.2667C118.476 25.2777 118.514 25.2709 118.552 25.2709V15.957C114.622 15.957 111.01 17.6758 109.124 20.2441ZM76.4757 40.5513C71.5035 40.5513 67.4737 36.7052 67.4737 31.9602C67.4737 27.2152 71.5035 23.3692 76.4757 23.3692C81.4471 23.3692 85.4778 27.2152 85.4778 31.9602C85.4778 36.7052 81.4471 40.5513 76.4757 40.5513ZM85.3873 18.1738C82.6491 16.2209 79.3069 15.0692 75.6958 15.0692C66.4264 15.0692 58.9123 22.6319 58.9123 31.9602C58.9123 41.2885 66.4264 48.8513 75.6958 48.8513C79.3069 48.8513 82.6491 47.6995 85.3873 45.7475V47.9651H93.6779V15.9562H85.3873V18.1738ZM142.286 15.0938C138.481 15.0938 134.881 16.2822 132.474 19.5614V15.9562H132.347V15.9544H123.489V15.9562H122.992V47.9651H132.59V30.4568C132.59 25.5892 135.834 23.2057 139.74 23.2057C143.925 23.2057 146.331 25.722 146.331 30.3904V47.9651H155.843V27.6093C155.843 20.1589 149.957 15.0938 142.286 15.0938ZM204.085 36.6107C200.783 36.6107 198.107 39.3042 198.107 42.6267C198.107 45.9484 200.783 48.6419 204.085 48.6419C207.386 48.6419 210.062 45.9484 210.062 42.6267C210.062 39.3042 207.386 36.6107 204.085 36.6107ZM176.772 40.5513C171.799 40.5513 167.769 36.7052 167.769 31.9602C167.769 27.2152 171.799 23.3692 176.772 23.3692C181.743 23.3692 185.773 27.2152 185.773 31.9602C185.773 36.7052 181.743 40.5513 176.772 40.5513ZM185.683 18.1738C182.945 16.2209 179.603 15.0692 175.992 15.0692C166.722 15.0692 159.207 22.6319 159.207 31.9602C159.207 41.2885 166.722 48.8513 175.992 48.8513C179.603 48.8513 182.945 47.6995 185.683 45.7475V47.9651H193.973V15.9562H185.683V18.1738ZM200.001 16.5401H200.464C200.754 16.5401 200.877 16.6824 200.877 16.9003C200.877 17.1174 200.797 17.2791 200.464 17.2791H200.001V16.5401ZM200.008 17.6698H200.469L200.859 18.5637H201.321L200.889 17.5949C201.167 17.4714 201.309 17.2289 201.309 16.9003C201.309 16.4466 200.963 16.1426 200.464 16.1426H199.581V18.5576H200.008V17.6698ZM0.214417 47.9651H10.7932V0.0253906H0.214417V47.9651ZM37.945 0.0296512H27.674C27.4642 10.852 21.252 20.1938 12.2457 24.8171L28.0276 47.9651H40.9141L26.5685 26.9096C33.7315 19.838 37.8003 10.3054 37.945 0.0296512ZM200.359 15.5339C201.364 15.5339 202.179 16.3665 202.179 17.3906C202.179 18.4147 201.364 19.2464 200.359 19.2464C199.354 19.2464 198.539 18.4147 198.539 17.3906C198.539 16.3665 199.354 15.5339 200.359 15.5339ZM200.359 19.6873C201.605 19.6873 202.616 18.6564 202.616 17.3906C202.616 16.1239 201.605 15.0938 200.359 15.0938C199.113 15.0938 198.107 16.1239 198.107 17.3906C198.107 18.6564 199.113 19.6873 200.359 19.6873Z" fill="white"/>
</svg>
