<svg width="171" height="69" viewBox="0 0 171 69" fill="none" xmlns="http://www.w3.org/2000/svg">
<path d="M22.7235 15.5543C10.7187 15.5543 0.71521 20.6473 0.71521 36.0127C0.71521 48.1855 7.44186 55.8511 23.0334 55.8511C41.3855 55.8511 42.5619 43.7621 42.5619 43.7621H33.6695C33.6695 43.7621 31.7629 50.2716 22.491 50.2716C14.9393 50.2716 9.50782 45.1702 9.50782 38.0198H43.4918V33.5329C43.4918 26.459 39.0012 15.5543 22.7235 15.5543ZM22.4135 21.2889C29.6019 21.2889 34.5025 25.6926 34.5025 32.293H9.7045C9.7045 25.2859 16.101 21.2889 22.4135 21.2889Z" fill="white"/>
<path d="M43.4855 0.675781V48.135C43.4855 50.8289 43.2932 54.6115 43.2932 54.6115H51.7747C51.7747 54.6115 52.0791 51.8948 52.0791 49.412C52.0791 49.412 56.2695 55.9676 67.6636 55.9676C79.6619 55.9676 87.812 47.6376 87.812 35.703C87.812 24.6004 80.3259 15.6708 67.6829 15.6708C55.8437 15.6708 52.1648 22.0641 52.1648 22.0641V0.675781H43.4855ZM65.4937 21.541C73.6416 21.541 78.8227 27.5881 78.8227 35.703C78.8227 44.4048 72.8387 50.0975 65.5519 50.0975C56.8557 50.0975 52.1648 43.3076 52.1648 35.7805C52.1648 28.7667 56.3741 21.541 65.4937 21.541Z" fill="white"/>
<path d="M108.89 15.5543C90.8301 15.5543 89.6719 25.4432 89.6719 27.0234H98.6611C98.6611 27.0234 99.1325 21.2501 108.27 21.2501C114.208 21.2501 118.81 23.968 118.81 29.1932V31.0531H108.27C94.2789 31.0531 86.8821 35.1462 86.8821 43.4521C86.8821 51.6264 93.7165 56.0739 102.952 56.0739C115.539 56.0739 119.594 49.1188 119.594 49.1188C119.594 51.8852 119.807 54.6112 119.807 54.6112H127.799C127.799 54.6112 127.489 51.2322 127.489 49.0704V30.3847C127.489 18.1327 117.606 15.5543 108.89 15.5543ZM118.81 36.6327V39.1125C118.81 42.3468 116.814 50.3878 105.064 50.3878C98.63 50.3878 95.8714 47.1767 95.8714 43.4521C95.8714 36.6763 105.161 36.6327 118.81 36.6327Z" fill="white"/>
<path d="M122.648 17.1061H132.761L147.275 46.1829L161.755 17.1061H170.916L144.54 68.8719H134.931L142.542 54.4415L122.648 17.1061Z" fill="white"/>
</svg>
