<svg width="163" height="49" viewBox="0 0 163 49" fill="none" xmlns="http://www.w3.org/2000/svg">
<path d="M70.7688 47.8914H57.6545L65.8571 0.877197H78.9706L70.7688 47.8914Z" fill="white"/>
<path d="M118.309 2.02697C115.722 1.07571 111.62 0.0253906 106.547 0.0253906C93.5959 0.0253906 84.4761 6.42699 84.4202 15.5794C84.3126 22.3319 90.9497 26.0825 95.9137 28.334C100.987 30.6347 102.712 32.1364 102.712 34.1872C102.661 37.3368 98.6123 38.7886 94.8366 38.7886C89.6008 38.7886 86.7953 38.0401 82.532 36.2878L80.8051 35.5367L78.97 46.0903C82.0458 47.3893 87.7126 48.5419 93.5959 48.5925C107.356 48.5925 116.315 42.2899 116.421 32.5366C116.473 27.1847 112.969 23.0838 105.413 19.7327C100.826 17.5816 98.0171 16.1311 98.0171 13.9301C98.0709 11.9292 100.393 9.87973 105.571 9.87973C109.834 9.77936 112.966 10.7293 115.339 11.6799L116.526 12.1791L118.309 2.02697Z" fill="white"/>
<path d="M135.739 31.2359C136.819 28.535 140.975 18.0817 140.975 18.0817C140.92 18.1821 142.053 15.331 142.7 13.5807L143.617 17.6317C143.617 17.6317 146.1 28.8854 146.639 31.2359C144.59 31.2359 138.329 31.2359 135.739 31.2359ZM151.927 0.877197H141.783C138.655 0.877197 136.278 1.72676 134.928 4.77799L115.449 47.8907H129.209C129.209 47.8907 131.475 42.0881 131.962 40.8383C133.471 40.8383 146.857 40.8383 148.799 40.8383C149.176 42.4889 150.364 47.8907 150.364 47.8907H162.507L151.927 0.877197Z" fill="white"/>
<path d="M46.7008 0.877197L33.8576 32.9364L32.4542 26.4344C30.0798 18.932 22.633 10.7807 14.3229 6.72772L26.0868 47.8415H39.9547L60.568 0.877197H46.7008Z" fill="white"/>
<path d="M21.9318 0.877197H0.832312L0.616455 1.82713C17.0754 5.72859 27.9759 15.1329 32.4544 26.4364L27.8676 4.82917C27.1124 1.82647 24.7918 0.976246 21.9318 0.877197Z" fill="white"/>
</svg>
