<svg width="144" height="28" viewBox="0 0 144 28" fill="none" xmlns="http://www.w3.org/2000/svg">
<g clip-path="url(#clip0_246_22)">
<path d="M84.8515 12.6632L82.5026 8.66284H79.6883V12.6632H78.6849V2.68677H82.6983C83.5308 2.68677 84.2404 2.97947 84.8275 3.56489C85.4146 4.15029 85.7086 4.85767 85.7086 5.68701C85.7086 6.36999 85.5123 6.9554 85.0966 7.49203C84.6801 8.02867 84.1667 8.37016 83.5548 8.56525L86.0017 12.6876H84.8515V12.6632ZM79.6883 3.61367V7.71157H82.6983C83.2608 7.71157 83.7262 7.51642 84.1179 7.10176C84.5095 6.68709 84.7049 6.22364 84.7049 5.66262C84.7049 5.10159 84.5095 4.61375 84.1179 4.19908C83.7262 3.80881 83.2608 3.58927 82.6983 3.58927H79.6883V3.61367Z" fill="#F9F7F4"/>
<path d="M90.2115 5.34546C91.264 5.34546 92.1202 5.71134 92.781 6.4675C93.4418 7.22367 93.7598 8.10179 93.7598 9.10182C93.7598 9.19941 93.7598 9.34575 93.7358 9.54093H87.4466C87.5443 10.2727 87.8383 10.8337 88.3765 11.2484C88.8899 11.6631 89.5267 11.8826 90.3101 11.8826C90.8483 11.8826 91.3129 11.7606 91.7294 11.5411C92.1202 11.3216 92.4142 11.0289 92.6344 10.663L93.4666 11.1508C93.1487 11.6631 92.7321 12.0534 92.1699 12.346C91.6308 12.6387 90.9949 12.7851 90.3101 12.7851C89.1839 12.7851 88.2788 12.4436 87.5692 11.7362C86.8595 11.0289 86.5167 10.1508 86.5167 9.05307C86.5167 7.97982 86.8595 7.1017 87.5692 6.39433C88.23 5.71134 89.1102 5.34546 90.2115 5.34546ZM90.2115 6.27237C89.4779 6.27237 88.8411 6.49189 88.3517 6.93096C87.8623 7.37001 87.5443 7.95543 87.4466 8.63842H92.781C92.6833 7.88225 92.3902 7.29684 91.8999 6.88217C91.4354 6.4675 90.8723 6.27237 90.2115 6.27237Z" fill="#F9F7F4"/>
<path d="M98.8499 6.44321H96.7946V10.7606C96.7946 11.1509 96.8675 11.4192 97.0149 11.59C97.1615 11.7607 97.4066 11.8339 97.6997 11.8583C97.9937 11.8583 98.3853 11.8583 98.8499 11.8339V12.6632C97.8471 12.8096 97.0878 12.7364 96.5984 12.4437C96.109 12.151 95.8399 11.59 95.8399 10.7606V6.44321H94.3477V5.54069H95.8399V3.83323L96.7946 3.54053V5.54069H98.8499V6.44321Z" fill="#F9F7F4"/>
<path d="M106.143 5.51621H107.097V12.6387H106.143V11.2484C105.482 12.2973 104.527 12.8095 103.255 12.8095C102.227 12.8095 101.371 12.4436 100.636 11.7362C99.9264 11.0044 99.5596 10.1264 99.5596 9.07745C99.5596 8.02861 99.9264 7.15049 100.636 6.41872C101.346 5.68695 102.227 5.34546 103.255 5.34546C104.527 5.34546 105.482 5.8577 106.143 6.90657V5.51621ZM101.322 11.102C101.86 11.6386 102.521 11.9314 103.328 11.9314C104.111 11.9314 104.796 11.6631 105.334 11.102C105.874 10.5654 106.143 9.88245 106.143 9.10182C106.143 8.32128 105.874 7.63833 105.334 7.1017C104.796 6.56507 104.135 6.27237 103.328 6.27237C102.545 6.27237 101.86 6.54068 101.322 7.1017C100.783 7.63833 100.514 8.32128 100.514 9.10182C100.489 9.88245 100.783 10.541 101.322 11.102Z" fill="#F9F7F4"/>
<path d="M110.034 3.80877C109.911 3.93073 109.74 4.0039 109.544 4.0039C109.348 4.0039 109.202 3.93073 109.055 3.80877C108.932 3.6868 108.859 3.51606 108.859 3.32093C108.859 3.12578 108.932 2.97943 109.055 2.83307C109.177 2.71112 109.348 2.63794 109.544 2.63794C109.74 2.63794 109.886 2.71112 110.034 2.83307C110.155 2.95504 110.229 3.12578 110.229 3.32093C110.229 3.51606 110.18 3.6868 110.034 3.80877ZM109.079 12.6631V5.51622H110.034V12.6387H109.079V12.6631Z" fill="#F9F7F4"/>
<path d="M112.015 12.6632V2.2478H112.97V12.6632H112.015Z" fill="#F9F7F4"/>
<path d="M80.8878 26.1278L77.9756 16.1514H79.0279L81.4995 24.7862L84.1179 16.1514H85.2929L87.8864 24.7862L90.3582 16.1514H91.4106L88.5232 26.1278H87.3241L84.705 17.4685L82.0869 26.1278H80.8878Z" fill="#F9F7F4"/>
<path d="M93.5147 17.2978C93.3921 17.4197 93.2216 17.4929 93.0253 17.4929C92.8299 17.4929 92.6825 17.4197 92.5359 17.2978C92.4134 17.1758 92.3405 17.0051 92.3405 16.8099C92.3405 16.6147 92.4134 16.4684 92.5359 16.322C92.6585 16.2001 92.8299 16.127 93.0253 16.127C93.2216 16.127 93.3681 16.2001 93.5147 16.322C93.6373 16.444 93.711 16.6147 93.711 16.8099C93.711 17.0051 93.6621 17.1758 93.5147 17.2978ZM92.5608 26.1277V19.0052H93.5147V26.1277H92.5608Z" fill="#F9F7F4"/>
<path d="M99.2904 19.932H97.2352V24.2493C97.2352 24.6396 97.3081 24.908 97.4555 25.0787C97.602 25.2494 97.8471 25.3226 98.1403 25.347C98.4342 25.347 98.8259 25.347 99.2904 25.3226V26.1519C98.2877 26.2983 97.5283 26.2252 97.0389 25.9325C96.5496 25.6397 96.2804 25.0787 96.2804 24.2493V19.932H94.7883V19.0294H96.2804V17.322L97.2352 17.0293V19.0294H99.2904V19.932Z" fill="#F9F7F4"/>
<path d="M104.21 18.8345C105.066 18.8345 105.751 19.1028 106.265 19.615C106.755 20.1517 107.024 20.8591 107.024 21.7372V26.1034H106.07V21.7616C106.07 21.1274 105.898 20.6395 105.556 20.2736C105.213 19.9322 104.748 19.737 104.111 19.737C103.427 19.737 102.864 19.9566 102.448 20.3956C102.007 20.8347 101.811 21.4933 101.811 22.3958V26.1278H100.857V16.1514H101.811V20.1029C102.35 19.2736 103.157 18.8345 104.21 18.8345Z" fill="#F9F7F4"/>
<path d="M118.109 20.9567C118.598 21.1761 118.99 21.4933 119.284 21.9079C119.577 22.3226 119.725 22.8104 119.725 23.347C119.725 24.1277 119.455 24.7619 118.916 25.3228C118.378 25.8595 117.717 26.1278 116.935 26.1278H112.578V16.1514H116.617C117.35 16.1514 117.986 16.4197 118.526 16.9319C119.039 17.4685 119.308 18.0783 119.308 18.8101C119.284 19.7614 118.892 20.4688 118.109 20.9567ZM116.617 17.1027H113.582V20.5908H116.617C117.081 20.5908 117.473 20.42 117.816 20.0785C118.134 19.737 118.305 19.3224 118.305 18.8345C118.305 18.371 118.134 17.9564 117.816 17.6149C117.473 17.2734 117.081 17.1027 116.617 17.1027ZM116.935 25.2009C117.424 25.2009 117.84 25.0302 118.207 24.6643C118.55 24.2984 118.721 23.8837 118.721 23.3715C118.721 22.8593 118.55 22.4445 118.207 22.0787C117.865 21.7128 117.448 21.542 116.935 21.542H113.582V25.2253H116.935V25.2009Z" fill="#F9F7F4"/>
<path d="M122.244 20.2005C122.685 19.3467 123.443 18.9077 124.496 18.9077V19.8102C123.86 19.8102 123.297 20.0053 122.881 20.3712C122.441 20.7615 122.244 21.3469 122.244 22.1762V26.1278H121.29V19.0052H122.244V20.2005Z" fill="#F9F7F4"/>
<path d="M126.747 17.2978C126.625 17.4197 126.453 17.4929 126.258 17.4929C126.063 17.4929 125.915 17.4197 125.769 17.2978C125.646 17.1758 125.572 17.0051 125.572 16.8099C125.572 16.6147 125.646 16.4684 125.769 16.322C125.891 16.2001 126.063 16.127 126.258 16.127C126.453 16.127 126.601 16.2001 126.747 16.322C126.87 16.444 126.943 16.6147 126.943 16.8099C126.943 17.0051 126.87 17.1758 126.747 17.2978ZM125.793 26.1277V19.0052H126.747V26.1277H125.793Z" fill="#F9F7F4"/>
<path d="M134.872 19.0052H135.827V26.1277H134.872V24.7374C134.211 25.7862 133.258 26.2985 131.985 26.2985C130.957 26.2985 130.1 25.9326 129.366 25.2252C128.657 24.4934 128.289 23.6153 128.289 22.5665C128.289 21.5176 128.657 20.6395 129.366 19.9077C130.076 19.176 130.957 18.8345 131.985 18.8345C133.258 18.8345 134.211 19.3467 134.872 20.3956V19.0052ZM130.051 24.5666C130.59 25.1033 131.25 25.3959 132.058 25.3959C132.841 25.3959 133.527 25.1276 134.065 24.5666C134.603 24.03 134.872 23.347 134.872 22.5665C134.872 21.7859 134.603 21.103 134.065 20.5664C133.527 20.0297 132.866 19.737 132.058 19.737C131.275 19.737 130.59 20.0053 130.051 20.5664C129.513 21.103 129.244 21.7859 129.244 22.5665C129.244 23.3715 129.513 24.03 130.051 24.5666Z" fill="#F9F7F4"/>
<path d="M141.185 18.8345C142.042 18.8345 142.727 19.1028 143.242 19.615C143.731 20.1516 144 20.859 144 21.7372V26.1034H143.045V21.7615C143.045 21.1273 142.875 20.6395 142.532 20.2736C142.189 19.9322 141.724 19.737 141.088 19.737C140.403 19.737 139.84 19.9565 139.424 20.3956C138.984 20.8347 138.787 21.4932 138.787 22.3957V26.1277H137.833V19.0052H138.787V20.1272C139.302 19.2735 140.109 18.8345 141.185 18.8345Z" fill="#F9F7F4"/>
<path d="M72.2259 0H71.9004V28H72.2259V0Z" fill="#F9F7F4"/>
<path d="M19.1498 23.4282L16.344 18.0362C15.6983 16.763 14.674 15.7555 13.4048 15.1243C15.4646 14.9693 17.2013 14.3271 18.4594 13.2643C19.8623 12.0796 20.5971 10.441 20.5971 8.5477C20.5971 4.36255 17.6356 1.95996 12.4807 1.95996H0.0222672L0 2.40284C1.31376 2.52463 2.33805 3.65395 2.33805 4.9715V23.085C2.33805 24.4579 1.3583 25.5318 0 25.6536L0.0222672 26.0965H9.25202L9.2743 25.6536C7.9605 25.5318 6.93621 24.4025 6.93621 23.085V15.1908C8.80669 15.2018 9.78637 15.4011 10.5212 16.8183L14.1285 23.8268C14.1953 23.9486 14.2287 24.1479 14.2287 24.3804C14.2287 25.089 13.75 25.6315 13.0931 25.6868L13.1153 26.1297H22.3451L22.3674 25.6868C20.9867 25.5318 19.7843 24.6793 19.1498 23.4282ZM10.0981 14.4379H6.95848V2.71285H10.0981C13.338 2.71285 15.9766 5.33687 15.9766 8.56986C15.9766 11.8028 13.338 14.4379 10.0981 14.4379Z" fill="#F9F7F4"/>
<path d="M64.4186 15.2794C63.4055 14.2607 62.0138 13.5189 60.5665 13.1978C62.8933 12.4892 64.5856 10.3524 64.5856 7.83909C64.5856 4.39575 61.5462 1.99316 57.2041 1.99316H45.6474L45.6252 2.43604C46.7608 2.53568 47.6738 3.355 47.8964 4.49539C47.8964 4.58397 47.8742 4.67254 47.8408 4.79433L42.2963 23.9597L36.7294 4.79433V4.78327C36.6738 4.63933 36.6738 4.47326 36.6738 4.30717C36.6738 3.36607 37.4086 2.55783 38.3438 2.46925L38.3216 2.02638H29.0918L29.0695 2.46925C30.4167 2.59105 31.5858 3.56536 31.9643 4.90506L34.2578 12.7772L31.018 23.9707L25.4623 4.77219C25.3955 4.58397 25.3621 4.38468 25.3621 4.24074C25.3621 3.31071 26.0969 2.52461 27.021 2.44711L26.9987 2.00424H17.769L17.7467 2.44711C19.0939 2.5689 20.2629 3.54322 20.6637 4.88291L26.854 26.163H31.6414L31.5412 25.8751C31.4856 25.6979 31.441 25.4543 31.441 25.2772C31.441 25.0779 31.4744 24.8786 31.5412 24.6793L34.6141 14.1168L38.0989 26.174H42.9309L42.8641 25.8751C42.8084 25.6979 42.7639 25.4543 42.7639 25.2772C42.7639 25.0779 42.7972 24.8786 42.8641 24.6683L47.941 7.09728V23.1514C47.941 24.4911 46.939 25.5983 45.6029 25.7201L45.6252 26.163H58.0837C62.8599 26.163 66.2 23.4615 66.2 19.5863C66.2223 17.9477 65.5988 16.464 64.4186 15.2794ZM61.6019 19.5309C61.6019 22.775 58.9632 25.4101 55.7233 25.4101H52.5837V13.685H55.7233C58.9743 13.685 61.6019 16.309 61.6019 19.5309ZM52.5948 12.9321V2.71283H54.8661C57.6828 2.71283 59.9875 5.0047 59.9875 7.82801C59.9875 10.6403 57.694 12.921 54.8661 12.921H52.5948V12.9321Z" fill="#F9F7F4"/>
</g>
<defs>
<clipPath id="clip0_246_22">
<rect width="144" height="28" fill="white"/>
</clipPath>
</defs>
</svg>
