<svg width="21" height="20" viewBox="0 0 21 20" fill="none" xmlns="http://www.w3.org/2000/svg">
<path d="M10.8135 0C8.83567 0 6.90227 0.58649 5.25778 1.6853C3.61329 2.78412 2.33156 4.3459 1.57469 6.17317C0.817809 8.00043 0.619776 10.0111 1.00563 11.9509C1.39148 13.8907 2.34389 15.6725 3.74241 17.0711C5.14094 18.4696 6.92277 19.422 8.86258 19.8079C10.8024 20.1937 12.8131 19.9957 14.6403 19.2388C16.4676 18.4819 18.0294 17.2002 19.1282 15.5557C20.227 13.9112 20.8135 11.9778 20.8135 10C20.8135 8.68678 20.5548 7.38642 20.0523 6.17317C19.5497 4.95991 18.8131 3.85752 17.8845 2.92893C16.956 2.00035 15.8536 1.26375 14.6403 0.761205C13.4271 0.258658 12.1267 0 10.8135 0ZM10.8135 18C9.23123 18 7.68451 17.5308 6.36892 16.6518C5.05333 15.7727 4.02795 14.5233 3.42245 13.0615C2.81694 11.5997 2.65852 9.99113 2.9672 8.43928C3.27588 6.88743 4.03781 5.46197 5.15663 4.34315C6.27545 3.22433 7.70091 2.4624 9.25276 2.15372C10.8046 1.84504 12.4131 2.00346 13.8749 2.60896C15.3368 3.21447 16.5862 4.23984 17.4652 5.55544C18.3443 6.87103 18.8135 8.41775 18.8135 10C18.8135 12.1217 17.9706 14.1566 16.4703 15.6569C14.97 17.1571 12.9352 18 10.8135 18Z" fill="#003865"/>
</svg>
