<svg width="22" height="20" viewBox="0 0 22 20" fill="none" xmlns="http://www.w3.org/2000/svg">
<path d="M13.4904 6.79L8.95316 11.09L7.20807 9.44C7.11326 9.33532 6.99658 9.2503 6.86537 9.19027C6.73415 9.13025 6.59123 9.09652 6.44558 9.0912C6.29992 9.08588 6.15468 9.10909 6.01896 9.15936C5.88323 9.20964 5.75997 9.28589 5.6569 9.38335C5.55383 9.4808 5.47318 9.59735 5.42001 9.72568C5.36683 9.854 5.34229 9.99133 5.34792 10.1291C5.35354 10.2668 5.38922 10.4019 5.4527 10.526C5.51618 10.65 5.6061 10.7604 5.71682 10.85L8.20224 13.21C8.30106 13.3027 8.41827 13.376 8.54712 13.4258C8.67598 13.4755 8.81396 13.5008 8.95316 13.5C9.23061 13.4989 9.4965 13.3947 9.69349 13.21L14.9816 8.21C15.0808 8.11704 15.1594 8.00644 15.2131 7.88458C15.2668 7.76272 15.2945 7.63201 15.2945 7.5C15.2945 7.36799 15.2668 7.23728 15.2131 7.11542C15.1594 6.99356 15.0808 6.88296 14.9816 6.79C14.7835 6.60375 14.5154 6.49921 14.236 6.49921C13.9566 6.49921 13.6885 6.60375 13.4904 6.79ZM10.6136 0C8.52184 0 6.47703 0.58649 4.73777 1.6853C2.99851 2.78412 1.64292 4.3459 0.842429 6.17317C0.041936 8.00043 -0.167509 10.0111 0.240578 11.9509C0.648666 13.8907 1.65596 15.6725 3.13508 17.0711C4.61419 18.4696 6.49871 19.422 8.5503 19.8079C10.6019 20.1937 12.7284 19.9957 14.661 19.2388C16.5936 18.4819 18.2453 17.2002 19.4075 15.5557C20.5696 13.9112 21.1899 11.9778 21.1899 10C21.1899 8.68678 20.9163 7.38642 20.3848 6.17317C19.8533 4.95991 19.0743 3.85752 18.0922 2.92893C17.1101 2.00035 15.9442 1.26375 14.661 0.761205C13.3778 0.258658 12.0025 0 10.6136 0ZM10.6136 18C8.9402 18 7.30435 17.5308 5.91294 16.6518C4.52153 15.7727 3.43706 14.5233 2.79667 13.0615C2.15628 11.5997 1.98872 9.99113 2.31519 8.43928C2.64166 6.88743 3.44749 5.46197 4.63079 4.34315C5.81408 3.22433 7.32169 2.4624 8.96297 2.15372C10.6042 1.84504 12.3055 2.00346 13.8515 2.60896C15.3976 3.21447 16.719 4.23984 17.6487 5.55544C18.5784 6.87103 19.0746 8.41775 19.0746 10C19.0746 12.1217 18.1832 14.1566 16.5965 15.6569C15.0097 17.1571 12.8576 18 10.6136 18Z" fill="#D84E00"/>
</svg>
